<mxfile host="app.diagrams.net" agent="Mozilla/5.0 (Macintosh; Intel Mac OS X 10_15_7) AppleWebKit/605.1.15 (KHTML, like Gecko) Version/18.4 Safari/605.1.15" version="27.0.9" pages="2">
  <diagram name="Page-1" id="y9nTZKk8y_K4X9FB4Fgg">
    <mxGraphModel dx="2750" dy="1115" grid="1" gridSize="10" guides="1" tooltips="1" connect="1" arrows="1" fold="1" page="1" pageScale="1" pageWidth="850" pageHeight="1100" math="0" shadow="0">
      <root>
        <mxCell id="0" />
        <mxCell id="1" parent="0" />
        <mxCell id="mkcLU9aRLQ0EbhDpCmFJ-115" value="" style="rounded=1;whiteSpace=wrap;html=1;fontSize=20;" vertex="1" parent="1">
          <mxGeometry x="130" y="140" width="890" height="700" as="geometry" />
        </mxCell>
        <mxCell id="mkcLU9aRLQ0EbhDpCmFJ-1" value="" style="rounded=1;whiteSpace=wrap;html=1;fontSize=20;" vertex="1" parent="1">
          <mxGeometry x="1030" y="196" width="480" height="554" as="geometry" />
        </mxCell>
        <mxCell id="mkcLU9aRLQ0EbhDpCmFJ-2" value="&lt;p style=&quot;text-align: start;&quot;&gt;модули, взаимодействующие с ui (на стороне клиента)&lt;/p&gt;" style="text;html=1;align=center;verticalAlign=middle;whiteSpace=wrap;rounded=0;fontSize=20;" vertex="1" parent="1">
          <mxGeometry x="1005" y="170" width="560" height="20" as="geometry" />
        </mxCell>
        <mxCell id="mkcLU9aRLQ0EbhDpCmFJ-4" value="Основы функции(Клиент)" style="text;html=1;align=center;verticalAlign=middle;whiteSpace=wrap;rounded=0;fontSize=20;" vertex="1" parent="1">
          <mxGeometry x="580" y="140" width="350" height="40" as="geometry" />
        </mxCell>
        <mxCell id="mkcLU9aRLQ0EbhDpCmFJ-6" value="Доп. функцииСпециалист)" style="text;html=1;align=center;verticalAlign=middle;whiteSpace=wrap;rounded=0;fontSize=20;" vertex="1" parent="1">
          <mxGeometry x="620" y="625" width="261.5" height="20" as="geometry" />
        </mxCell>
        <mxCell id="mkcLU9aRLQ0EbhDpCmFJ-8" value="&lt;p&gt;неавторизованный пользователь&lt;/p&gt;" style="text;whiteSpace=wrap;html=1;fontSize=20;" vertex="1" parent="1">
          <mxGeometry x="170" y="300" width="145" height="69" as="geometry" />
        </mxCell>
        <mxCell id="mkcLU9aRLQ0EbhDpCmFJ-23" style="edgeStyle=orthogonalEdgeStyle;rounded=0;orthogonalLoop=1;jettySize=auto;html=1;startArrow=classic;startFill=1;fontSize=20;" edge="1" parent="1">
          <mxGeometry relative="1" as="geometry">
            <mxPoint x="670" y="756" as="sourcePoint" />
            <mxPoint x="610" y="373" as="targetPoint" />
            <Array as="points">
              <mxPoint x="470" y="756" />
              <mxPoint x="470" y="373" />
            </Array>
          </mxGeometry>
        </mxCell>
        <mxCell id="mkcLU9aRLQ0EbhDpCmFJ-109" value="Проверка права&amp;nbsp;&lt;div&gt;Ползователь&lt;/div&gt;" style="edgeLabel;html=1;align=center;verticalAlign=middle;resizable=0;points=[];fontSize=20;" vertex="1" connectable="0" parent="mkcLU9aRLQ0EbhDpCmFJ-23">
          <mxGeometry x="0.0126" y="1" relative="1" as="geometry">
            <mxPoint x="22" y="11" as="offset" />
          </mxGeometry>
        </mxCell>
        <mxCell id="mkcLU9aRLQ0EbhDpCmFJ-31" value="" style="ellipse;shape=cloud;whiteSpace=wrap;html=1;fontSize=20;" vertex="1" parent="1">
          <mxGeometry x="1190" y="816" width="190" height="193" as="geometry" />
        </mxCell>
        <mxCell id="mkcLU9aRLQ0EbhDpCmFJ-32" value="Облачное хранилище" style="text;html=1;align=center;verticalAlign=middle;whiteSpace=wrap;rounded=0;fontSize=20;" vertex="1" parent="1">
          <mxGeometry x="1140" y="800" width="260" height="30" as="geometry" />
        </mxCell>
        <mxCell id="mkcLU9aRLQ0EbhDpCmFJ-33" value="" style="shape=cylinder3;whiteSpace=wrap;html=1;boundedLbl=1;backgroundOutline=1;size=15;fontSize=20;" vertex="1" parent="1">
          <mxGeometry x="1255" y="880.5" width="60" height="64" as="geometry" />
        </mxCell>
        <mxCell id="mkcLU9aRLQ0EbhDpCmFJ-34" style="edgeStyle=orthogonalEdgeStyle;rounded=0;orthogonalLoop=1;jettySize=auto;html=1;exitX=0.5;exitY=1;exitDx=0;exitDy=0;exitPerimeter=0;entryX=0.5;entryY=0;entryDx=0;entryDy=0;startArrow=classic;startFill=1;fontSize=20;" edge="1" parent="1" source="mkcLU9aRLQ0EbhDpCmFJ-35" target="mkcLU9aRLQ0EbhDpCmFJ-63">
          <mxGeometry relative="1" as="geometry" />
        </mxCell>
        <mxCell id="mkcLU9aRLQ0EbhDpCmFJ-35" value="" style="shape=cylinder3;whiteSpace=wrap;html=1;boundedLbl=1;backgroundOutline=1;size=15;fontSize=20;" vertex="1" parent="1">
          <mxGeometry x="1411.25" y="386" width="68.75" height="64" as="geometry" />
        </mxCell>
        <mxCell id="mkcLU9aRLQ0EbhDpCmFJ-63" value="Получение&amp;nbsp;&lt;div&gt;доп. сведений&lt;/div&gt;" style="rounded=1;whiteSpace=wrap;html=1;fontSize=20;" vertex="1" parent="1">
          <mxGeometry x="1389.38" y="620" width="112.5" height="76" as="geometry" />
        </mxCell>
        <mxCell id="mkcLU9aRLQ0EbhDpCmFJ-64" style="edgeStyle=orthogonalEdgeStyle;rounded=0;orthogonalLoop=1;jettySize=auto;html=1;exitX=0.5;exitY=1;exitDx=0;exitDy=0;entryX=1;entryY=0;entryDx=0;entryDy=37.5;entryPerimeter=0;startArrow=classic;startFill=1;fontSize=20;" edge="1" parent="1" source="mkcLU9aRLQ0EbhDpCmFJ-63" target="mkcLU9aRLQ0EbhDpCmFJ-33">
          <mxGeometry relative="1" as="geometry" />
        </mxCell>
        <mxCell id="mkcLU9aRLQ0EbhDpCmFJ-73" value="" style="group;fontSize=20;" vertex="1" connectable="0" parent="1">
          <mxGeometry x="1040" y="311" width="90" height="265" as="geometry" />
        </mxCell>
        <mxCell id="mkcLU9aRLQ0EbhDpCmFJ-74" value="Модуль передачи данных" style="rounded=0;whiteSpace=wrap;html=1;fontSize=20;" vertex="1" parent="mkcLU9aRLQ0EbhDpCmFJ-73">
          <mxGeometry x="3.75" width="82.5" height="265" as="geometry" />
        </mxCell>
        <mxCell id="mkcLU9aRLQ0EbhDpCmFJ-76" style="edgeStyle=orthogonalEdgeStyle;rounded=0;orthogonalLoop=1;jettySize=auto;html=1;exitX=0.75;exitY=0;exitDx=0;exitDy=0;entryX=0;entryY=0.25;entryDx=0;entryDy=0;dashed=1;endArrow=none;endFill=0;fontSize=20;strokeColor=#FFB570;" edge="1" parent="mkcLU9aRLQ0EbhDpCmFJ-73" source="mkcLU9aRLQ0EbhDpCmFJ-77" target="mkcLU9aRLQ0EbhDpCmFJ-74">
          <mxGeometry relative="1" as="geometry">
            <Array as="points">
              <mxPoint x="67.5" y="66.25" />
            </Array>
          </mxGeometry>
        </mxCell>
        <mxCell id="mkcLU9aRLQ0EbhDpCmFJ-77" value="HTTP" style="text;html=1;align=center;verticalAlign=middle;whiteSpace=wrap;rounded=0;container=1;fontSize=20;" vertex="1" parent="mkcLU9aRLQ0EbhDpCmFJ-73">
          <mxGeometry y="3.3125" width="90" height="33.125" as="geometry" />
        </mxCell>
        <mxCell id="mkcLU9aRLQ0EbhDpCmFJ-78" style="edgeStyle=orthogonalEdgeStyle;rounded=0;orthogonalLoop=1;jettySize=auto;html=1;exitX=1;exitY=1;exitDx=0;exitDy=0;entryX=0.5;entryY=0;entryDx=0;entryDy=0;dashed=1;endArrow=none;endFill=0;fontSize=20;strokeColor=#EA6B66;" edge="1" parent="mkcLU9aRLQ0EbhDpCmFJ-73" source="mkcLU9aRLQ0EbhDpCmFJ-77" target="mkcLU9aRLQ0EbhDpCmFJ-77">
          <mxGeometry relative="1" as="geometry">
            <Array as="points">
              <mxPoint x="45" y="36.4375" />
            </Array>
          </mxGeometry>
        </mxCell>
        <mxCell id="JsNBszSfYDlq_1ny58t8-7" value="" style="endArrow=none;dashed=1;html=1;dashPattern=1 3;strokeWidth=2;rounded=0;strokeColor=#3333FF;" edge="1" parent="mkcLU9aRLQ0EbhDpCmFJ-73" target="mkcLU9aRLQ0EbhDpCmFJ-74">
          <mxGeometry width="50" height="50" relative="1" as="geometry">
            <mxPoint x="3.75" y="219" as="sourcePoint" />
            <mxPoint x="53.75" y="169" as="targetPoint" />
            <Array as="points">
              <mxPoint x="90" y="219" />
            </Array>
          </mxGeometry>
        </mxCell>
        <mxCell id="JsNBszSfYDlq_1ny58t8-8" value="" style="endArrow=none;dashed=1;html=1;dashPattern=1 3;strokeWidth=2;rounded=0;strokeColor=#97D077;" edge="1" parent="mkcLU9aRLQ0EbhDpCmFJ-73">
          <mxGeometry width="50" height="50" relative="1" as="geometry">
            <mxPoint x="3.75" y="86" as="sourcePoint" />
            <mxPoint x="86" y="79" as="targetPoint" />
            <Array as="points">
              <mxPoint x="90" y="86" />
            </Array>
          </mxGeometry>
        </mxCell>
        <mxCell id="JsNBszSfYDlq_1ny58t8-9" value="" style="endArrow=none;dashed=1;html=1;dashPattern=1 3;strokeWidth=2;rounded=0;strokeColor=#009999;" edge="1" parent="mkcLU9aRLQ0EbhDpCmFJ-73">
          <mxGeometry width="50" height="50" relative="1" as="geometry">
            <mxPoint x="4" y="186" as="sourcePoint" />
            <mxPoint x="86.25" y="179" as="targetPoint" />
            <Array as="points">
              <mxPoint x="90.25" y="186" />
            </Array>
          </mxGeometry>
        </mxCell>
        <mxCell id="JsNBszSfYDlq_1ny58t8-10" value="" style="endArrow=none;dashed=1;html=1;dashPattern=1 3;strokeWidth=2;rounded=0;strokeColor=#B5739D;" edge="1" parent="mkcLU9aRLQ0EbhDpCmFJ-73">
          <mxGeometry width="50" height="50" relative="1" as="geometry">
            <mxPoint x="3.75" y="243" as="sourcePoint" />
            <mxPoint x="86" y="236" as="targetPoint" />
            <Array as="points">
              <mxPoint x="90" y="243" />
            </Array>
          </mxGeometry>
        </mxCell>
        <mxCell id="JsNBszSfYDlq_1ny58t8-22" value="" style="endArrow=none;dashed=1;html=1;dashPattern=1 3;strokeWidth=2;rounded=0;strokeColor=#FF0080;" edge="1" parent="mkcLU9aRLQ0EbhDpCmFJ-73">
          <mxGeometry width="50" height="50" relative="1" as="geometry">
            <mxPoint x="3.75" y="146" as="sourcePoint" />
            <mxPoint x="86" y="139" as="targetPoint" />
            <Array as="points">
              <mxPoint x="90" y="146" />
            </Array>
          </mxGeometry>
        </mxCell>
        <mxCell id="JsNBszSfYDlq_1ny58t8-41" value="" style="endArrow=none;dashed=1;html=1;dashPattern=1 3;strokeWidth=2;rounded=0;strokeColor=#000000;" edge="1" parent="mkcLU9aRLQ0EbhDpCmFJ-73">
          <mxGeometry width="50" height="50" relative="1" as="geometry">
            <mxPoint x="1.8800000000000008" y="51" as="sourcePoint" />
            <mxPoint x="84.13" y="44" as="targetPoint" />
            <Array as="points">
              <mxPoint x="88.13" y="51" />
            </Array>
          </mxGeometry>
        </mxCell>
        <mxCell id="JsNBszSfYDlq_1ny58t8-47" value="" style="endArrow=none;dashed=1;html=1;dashPattern=1 3;strokeWidth=2;rounded=0;strokeColor=#FF33FF;" edge="1" parent="mkcLU9aRLQ0EbhDpCmFJ-73">
          <mxGeometry width="50" height="50" relative="1" as="geometry">
            <mxPoint x="4.75" y="254" as="sourcePoint" />
            <mxPoint x="87" y="247" as="targetPoint" />
            <Array as="points">
              <mxPoint x="91" y="254" />
            </Array>
          </mxGeometry>
        </mxCell>
        <mxCell id="mkcLU9aRLQ0EbhDpCmFJ-85" value="Модуль&lt;div&gt;Аутентификация&lt;/div&gt;" style="rounded=1;whiteSpace=wrap;html=1;fontSize=20;" vertex="1" parent="1">
          <mxGeometry x="1166.19" y="516" width="162.62" height="50" as="geometry" />
        </mxCell>
        <mxCell id="mkcLU9aRLQ0EbhDpCmFJ-86" value="Модуль&lt;div&gt;Регистрация&lt;/div&gt;" style="rounded=1;whiteSpace=wrap;html=1;fontSize=20;" vertex="1" parent="1">
          <mxGeometry x="1180" y="579" width="135" height="64" as="geometry" />
        </mxCell>
        <mxCell id="mkcLU9aRLQ0EbhDpCmFJ-92" value="Модуль&lt;div&gt;Обновление&lt;div&gt;рейтинга&lt;/div&gt;&lt;/div&gt;" style="rounded=1;whiteSpace=wrap;html=1;fontSize=20;" vertex="1" parent="1">
          <mxGeometry x="1180" y="320" width="135" height="82" as="geometry" />
        </mxCell>
        <mxCell id="mkcLU9aRLQ0EbhDpCmFJ-94" value="Модуль&lt;div&gt;Обновление профиля (клиент)&lt;/div&gt;" style="rounded=1;whiteSpace=wrap;html=1;fontSize=20;" vertex="1" parent="1">
          <mxGeometry x="1187.5" y="209" width="120" height="102" as="geometry" />
        </mxCell>
        <mxCell id="mkcLU9aRLQ0EbhDpCmFJ-95" style="edgeStyle=orthogonalEdgeStyle;rounded=0;orthogonalLoop=1;jettySize=auto;html=1;exitX=0.75;exitY=0;exitDx=0;exitDy=0;entryX=0;entryY=0.5;entryDx=0;entryDy=0;startArrow=none;startFill=0;fontSize=20;strokeColor=#FFB570;" edge="1" parent="1" source="mkcLU9aRLQ0EbhDpCmFJ-77" target="mkcLU9aRLQ0EbhDpCmFJ-94">
          <mxGeometry relative="1" as="geometry" />
        </mxCell>
        <mxCell id="mkcLU9aRLQ0EbhDpCmFJ-102" value="Модуль&lt;div&gt;Обновление&lt;div&gt;Данных&lt;/div&gt;&lt;/div&gt;" style="rounded=1;whiteSpace=wrap;html=1;fontSize=20;" vertex="1" parent="1">
          <mxGeometry x="1183.69" y="426" width="127.62" height="78" as="geometry" />
        </mxCell>
        <mxCell id="mkcLU9aRLQ0EbhDpCmFJ-110" value="" style="group;fontSize=20;" vertex="1" connectable="0" parent="1">
          <mxGeometry x="630" y="248" width="330" height="320" as="geometry" />
        </mxCell>
        <mxCell id="mkcLU9aRLQ0EbhDpCmFJ-3" value="" style="rounded=1;whiteSpace=wrap;html=1;fontSize=20;" vertex="1" parent="mkcLU9aRLQ0EbhDpCmFJ-110">
          <mxGeometry x="-20" y="-10" width="350" height="320" as="geometry" />
        </mxCell>
        <mxCell id="mkcLU9aRLQ0EbhDpCmFJ-80" value="Оценить&lt;div&gt;специалист&lt;/div&gt;" style="rounded=1;whiteSpace=wrap;html=1;fontSize=20;" vertex="1" parent="mkcLU9aRLQ0EbhDpCmFJ-110">
          <mxGeometry x="167.8725806451613" y="4.459083969465652" width="123.87096774193549" height="66.8702290076336" as="geometry" />
        </mxCell>
        <mxCell id="mkcLU9aRLQ0EbhDpCmFJ-82" value="Получить данные" style="rounded=1;whiteSpace=wrap;html=1;fontSize=20;" vertex="1" parent="mkcLU9aRLQ0EbhDpCmFJ-110">
          <mxGeometry y="99.04" width="126.58" height="77.47" as="geometry" />
        </mxCell>
        <mxCell id="mkcLU9aRLQ0EbhDpCmFJ-84" value="Обновить профиль или изменить общие данные" style="rounded=1;whiteSpace=wrap;html=1;fontSize=20;" vertex="1" parent="mkcLU9aRLQ0EbhDpCmFJ-110">
          <mxGeometry x="155.41" y="82.02000000000001" width="159.13" height="94.49" as="geometry" />
        </mxCell>
        <mxCell id="mkcLU9aRLQ0EbhDpCmFJ-103" value="Получить Список уведомлений&amp;nbsp;" style="rounded=1;whiteSpace=wrap;html=1;fontSize=20;" vertex="1" parent="mkcLU9aRLQ0EbhDpCmFJ-110">
          <mxGeometry x="5.518709677419354" y="4.458549618320612" width="143.48387096774192" height="86.93129770992367" as="geometry" />
        </mxCell>
        <mxCell id="mkcLU9aRLQ0EbhDpCmFJ-104" value="Записаться на услугу" style="rounded=1;whiteSpace=wrap;html=1;fontSize=20;" vertex="1" parent="mkcLU9aRLQ0EbhDpCmFJ-110">
          <mxGeometry x="180.00387096774193" y="189.38435114503818" width="134.19354838709677" height="75.78625954198473" as="geometry" />
        </mxCell>
        <mxCell id="mkcLU9aRLQ0EbhDpCmFJ-105" value="Пожаловаться на ползаввотел" style="rounded=1;whiteSpace=wrap;html=1;fontSize=20;" vertex="1" parent="mkcLU9aRLQ0EbhDpCmFJ-110">
          <mxGeometry x="-3.1099999999999994" y="182.55" width="144.52" height="89.45" as="geometry" />
        </mxCell>
        <mxCell id="mkcLU9aRLQ0EbhDpCmFJ-106" value="Главные страница" style="rounded=1;whiteSpace=wrap;html=1;fontSize=20;" vertex="1" parent="mkcLU9aRLQ0EbhDpCmFJ-110">
          <mxGeometry x="53.32258064516129" y="280.00091603053437" width="203.3548387096774" height="22.290076335877863" as="geometry" />
        </mxCell>
        <mxCell id="mkcLU9aRLQ0EbhDpCmFJ-111" value="" style="group;fontSize=20;" vertex="1" connectable="0" parent="1">
          <mxGeometry x="690" y="660" width="153" height="180" as="geometry" />
        </mxCell>
        <mxCell id="mkcLU9aRLQ0EbhDpCmFJ-5" value="" style="rounded=1;whiteSpace=wrap;html=1;fontSize=20;" vertex="1" parent="mkcLU9aRLQ0EbhDpCmFJ-111">
          <mxGeometry x="-20" y="-10" width="153" height="180" as="geometry" />
        </mxCell>
        <mxCell id="mkcLU9aRLQ0EbhDpCmFJ-107" value="Изменит&lt;div&gt;&amp;nbsp;доступность&lt;/div&gt;" style="rounded=1;whiteSpace=wrap;html=1;fontSize=20;" vertex="1" parent="mkcLU9aRLQ0EbhDpCmFJ-111">
          <mxGeometry x="-8.5" y="10" width="130" height="60" as="geometry" />
        </mxCell>
        <mxCell id="mkcLU9aRLQ0EbhDpCmFJ-108" value="Добавить услуги&amp;nbsp;" style="rounded=1;whiteSpace=wrap;html=1;fontSize=20;" vertex="1" parent="mkcLU9aRLQ0EbhDpCmFJ-111">
          <mxGeometry x="-8.5" y="90" width="130" height="60" as="geometry" />
        </mxCell>
        <mxCell id="mkcLU9aRLQ0EbhDpCmFJ-116" value="" style="endArrow=classic;html=1;rounded=0;edgeStyle=elbowEdgeStyle;exitX=1;exitY=0.5;exitDx=0;exitDy=0;entryX=0.003;entryY=0.218;entryDx=0;entryDy=0;entryPerimeter=0;" edge="1" parent="1" source="mkcLU9aRLQ0EbhDpCmFJ-7" target="mkcLU9aRLQ0EbhDpCmFJ-3">
          <mxGeometry width="50" height="50" relative="1" as="geometry">
            <mxPoint x="195" y="690" as="sourcePoint" />
            <mxPoint x="245" y="640" as="targetPoint" />
            <Array as="points">
              <mxPoint x="420" y="400" />
            </Array>
          </mxGeometry>
        </mxCell>
        <mxCell id="mkcLU9aRLQ0EbhDpCmFJ-118" value="" style="group" vertex="1" connectable="0" parent="1">
          <mxGeometry x="30" y="379" width="300" height="200" as="geometry" />
        </mxCell>
        <mxCell id="mkcLU9aRLQ0EbhDpCmFJ-7" value="" style="rounded=1;whiteSpace=wrap;html=1;fontSize=20;" vertex="1" parent="mkcLU9aRLQ0EbhDpCmFJ-118">
          <mxGeometry x="120" width="180" height="200" as="geometry" />
        </mxCell>
        <mxCell id="mkcLU9aRLQ0EbhDpCmFJ-10" value="Oбщие Настройки&amp;nbsp;" style="rounded=1;whiteSpace=wrap;html=1;fontSize=20;" vertex="1" parent="mkcLU9aRLQ0EbhDpCmFJ-118">
          <mxGeometry x="135" y="18" width="145" height="62" as="geometry" />
        </mxCell>
        <mxCell id="mkcLU9aRLQ0EbhDpCmFJ-12" value="Авторизация" style="rounded=1;whiteSpace=wrap;html=1;fontSize=20;" vertex="1" parent="mkcLU9aRLQ0EbhDpCmFJ-118">
          <mxGeometry x="131.25" y="86" width="152.5" height="47" as="geometry" />
        </mxCell>
        <mxCell id="mkcLU9aRLQ0EbhDpCmFJ-14" value="Регистрация" style="rounded=1;whiteSpace=wrap;html=1;fontSize=20;" vertex="1" parent="mkcLU9aRLQ0EbhDpCmFJ-118">
          <mxGeometry x="130" y="140" width="155" height="45" as="geometry" />
        </mxCell>
        <mxCell id="mkcLU9aRLQ0EbhDpCmFJ-119" value="" style="group" vertex="1" connectable="0" parent="1">
          <mxGeometry x="510" y="930" width="300" height="250" as="geometry" />
        </mxCell>
        <mxCell id="mkcLU9aRLQ0EbhDpCmFJ-120" value="" style="rounded=1;whiteSpace=wrap;html=1;fontSize=20;" vertex="1" parent="mkcLU9aRLQ0EbhDpCmFJ-119">
          <mxGeometry x="90" width="210" height="250" as="geometry" />
        </mxCell>
        <mxCell id="mkcLU9aRLQ0EbhDpCmFJ-121" value="посмотри заявки" style="rounded=1;whiteSpace=wrap;html=1;fontSize=20;" vertex="1" parent="mkcLU9aRLQ0EbhDpCmFJ-119">
          <mxGeometry x="120.63" y="8" width="145" height="62" as="geometry" />
        </mxCell>
        <mxCell id="mkcLU9aRLQ0EbhDpCmFJ-122" value="&lt;span style=&quot;&quot;&gt;заблокировать или отстранить пользователя&lt;/span&gt;/" style="rounded=1;whiteSpace=wrap;html=1;fontSize=20;align=center;" vertex="1" parent="mkcLU9aRLQ0EbhDpCmFJ-119">
          <mxGeometry x="106.25" y="80" width="173.75" height="73" as="geometry" />
        </mxCell>
        <mxCell id="mkcLU9aRLQ0EbhDpCmFJ-123" value="&lt;p style=&quot;&quot;&gt;подтвердить &amp;nbsp; &amp;nbsp;профили мастеров&lt;/p&gt;" style="rounded=1;whiteSpace=wrap;html=1;fontSize=20;arcSize=18;align=center;" vertex="1" parent="mkcLU9aRLQ0EbhDpCmFJ-119">
          <mxGeometry x="115" y="160" width="160" height="70" as="geometry" />
        </mxCell>
        <mxCell id="mkcLU9aRLQ0EbhDpCmFJ-126" value="&lt;font color=&quot;#000000&quot;&gt;&lt;span style=&quot;caret-color: rgb(0, 0, 0); font-size: 20px;&quot;&gt;Aдмин Панель&lt;/span&gt;&lt;/font&gt;" style="text;whiteSpace=wrap;html=1;" vertex="1" parent="1">
          <mxGeometry x="641" y="890" width="150" height="30" as="geometry" />
        </mxCell>
        <mxCell id="mkcLU9aRLQ0EbhDpCmFJ-26" value="" style="shape=actor;whiteSpace=wrap;html=1;fontSize=20;" vertex="1" parent="1">
          <mxGeometry x="-30" y="449" width="40" height="60" as="geometry" />
        </mxCell>
        <mxCell id="mkcLU9aRLQ0EbhDpCmFJ-25" style="edgeStyle=orthogonalEdgeStyle;rounded=0;orthogonalLoop=1;jettySize=auto;html=1;exitX=0.9;exitY=0.5;exitDx=0;exitDy=0;exitPerimeter=0;entryX=0;entryY=0.5;entryDx=0;entryDy=0;fontSize=20;" edge="1" parent="1" source="mkcLU9aRLQ0EbhDpCmFJ-26" target="mkcLU9aRLQ0EbhDpCmFJ-7">
          <mxGeometry relative="1" as="geometry" />
        </mxCell>
        <mxCell id="JsNBszSfYDlq_1ny58t8-3" value="" style="endArrow=classic;html=1;rounded=0;edgeStyle=elbowEdgeStyle;exitX=0.5;exitY=0;exitDx=0;exitDy=0;entryX=1;entryY=0.5;entryDx=0;entryDy=0;strokeColor=#EA6B66;" edge="1" parent="1" source="mkcLU9aRLQ0EbhDpCmFJ-77" target="mkcLU9aRLQ0EbhDpCmFJ-80">
          <mxGeometry width="50" height="50" relative="1" as="geometry">
            <mxPoint x="890" y="320" as="sourcePoint" />
            <mxPoint x="940" y="270" as="targetPoint" />
            <Array as="points">
              <mxPoint x="1085" y="270" />
            </Array>
          </mxGeometry>
        </mxCell>
        <mxCell id="JsNBszSfYDlq_1ny58t8-4" value="" style="endArrow=classic;html=1;rounded=0;edgeStyle=elbowEdgeStyle;entryX=0;entryY=0.5;entryDx=0;entryDy=0;strokeColor=#EA6B66;" edge="1" parent="1" target="mkcLU9aRLQ0EbhDpCmFJ-92">
          <mxGeometry width="50" height="50" relative="1" as="geometry">
            <mxPoint x="1120" y="347" as="sourcePoint" />
            <mxPoint x="1170" y="297" as="targetPoint" />
            <Array as="points">
              <mxPoint x="1150" y="327" />
            </Array>
          </mxGeometry>
        </mxCell>
        <mxCell id="JsNBszSfYDlq_1ny58t8-6" value="" style="endArrow=classic;html=1;rounded=0;edgeStyle=elbowEdgeStyle;exitX=0;exitY=0.25;exitDx=0;exitDy=0;entryX=1;entryY=0.5;entryDx=0;entryDy=0;strokeColor=#FFB570;" edge="1" parent="1" source="mkcLU9aRLQ0EbhDpCmFJ-74" target="mkcLU9aRLQ0EbhDpCmFJ-84">
          <mxGeometry width="50" height="50" relative="1" as="geometry">
            <mxPoint x="900" y="190" as="sourcePoint" />
            <mxPoint x="950" y="140" as="targetPoint" />
          </mxGeometry>
        </mxCell>
        <mxCell id="JsNBszSfYDlq_1ny58t8-12" value="" style="endArrow=classic;html=1;rounded=0;edgeStyle=orthogonalEdgeStyle;elbow=vertical;strokeColor=#97D077;" edge="1" parent="1">
          <mxGeometry width="50" height="50" relative="1" as="geometry">
            <mxPoint x="1045" y="397" as="sourcePoint" />
            <mxPoint x="670" y="520" as="targetPoint" />
            <Array as="points">
              <mxPoint x="994" y="397" />
              <mxPoint x="994" y="583" />
              <mxPoint x="670" y="583" />
              <mxPoint x="670" y="522" />
            </Array>
          </mxGeometry>
        </mxCell>
        <mxCell id="JsNBszSfYDlq_1ny58t8-13" value="" style="endArrow=classic;html=1;rounded=0;entryX=0.75;entryY=1;entryDx=0;entryDy=0;strokeColor=#97D077;" edge="1" parent="1" target="mkcLU9aRLQ0EbhDpCmFJ-104">
          <mxGeometry width="50" height="50" relative="1" as="geometry">
            <mxPoint x="911" y="582" as="sourcePoint" />
            <mxPoint x="910.6490322580644" y="515.1706106870229" as="targetPoint" />
          </mxGeometry>
        </mxCell>
        <mxCell id="JsNBszSfYDlq_1ny58t8-14" value="" style="endArrow=classic;html=1;rounded=0;edgeStyle=orthogonalEdgeStyle;entryX=0;entryY=0.5;entryDx=0;entryDy=0;exitX=0.982;exitY=0.314;exitDx=0;exitDy=0;exitPerimeter=0;strokeColor=#97D077;" edge="1" parent="1">
          <mxGeometry width="50" height="50" relative="1" as="geometry">
            <mxPoint x="1124.7649999999999" y="396.21000000000004" as="sourcePoint" />
            <mxPoint x="1183.69" y="466.99999999999955" as="targetPoint" />
            <Array as="points">
              <mxPoint x="1150" y="396" />
              <mxPoint x="1150" y="467" />
            </Array>
          </mxGeometry>
        </mxCell>
        <mxCell id="JsNBszSfYDlq_1ny58t8-15" value="" style="endArrow=classic;html=1;rounded=0;entryX=1;entryY=0.75;entryDx=0;entryDy=0;edgeStyle=orthogonalEdgeStyle;strokeColor=#3333FF;" edge="1" parent="1" target="mkcLU9aRLQ0EbhDpCmFJ-82">
          <mxGeometry width="50" height="50" relative="1" as="geometry">
            <mxPoint x="1050" y="530" as="sourcePoint" />
            <mxPoint x="880" y="470" as="targetPoint" />
            <Array as="points">
              <mxPoint x="1030" y="530" />
              <mxPoint x="1030" y="520" />
              <mxPoint x="780" y="520" />
              <mxPoint x="780" y="405" />
            </Array>
          </mxGeometry>
        </mxCell>
        <mxCell id="JsNBszSfYDlq_1ny58t8-16" value="" style="endArrow=classic;html=1;rounded=0;edgeStyle=orthogonalEdgeStyle;strokeColor=#3333FF;" edge="1" parent="1" target="mkcLU9aRLQ0EbhDpCmFJ-35">
          <mxGeometry width="50" height="50" relative="1" as="geometry">
            <mxPoint x="1130" y="530" as="sourcePoint" />
            <mxPoint x="1180" y="480" as="targetPoint" />
            <Array as="points">
              <mxPoint x="1140" y="530" />
              <mxPoint x="1140" y="510" />
              <mxPoint x="1360" y="510" />
              <mxPoint x="1360" y="416" />
            </Array>
          </mxGeometry>
        </mxCell>
        <mxCell id="JsNBszSfYDlq_1ny58t8-18" value="" style="endArrow=classic;html=1;rounded=0;edgeStyle=orthogonalEdgeStyle;strokeColor=#B5739D;" edge="1" parent="1">
          <mxGeometry width="50" height="50" relative="1" as="geometry">
            <mxPoint x="1050" y="553.5" as="sourcePoint" />
            <mxPoint x="707" y="250" as="targetPoint" />
            <Array as="points">
              <mxPoint x="1010" y="554" />
              <mxPoint x="1010" y="210" />
              <mxPoint x="707" y="210" />
            </Array>
          </mxGeometry>
        </mxCell>
        <mxCell id="JsNBszSfYDlq_1ny58t8-19" value="Модуль&lt;div&gt;Получиние Список уведомлений&amp;nbsp;&lt;br&gt;&lt;/div&gt;" style="rounded=1;whiteSpace=wrap;html=1;fontSize=20;" vertex="1" parent="1">
          <mxGeometry x="1180" y="654" width="146.31" height="90" as="geometry" />
        </mxCell>
        <mxCell id="JsNBszSfYDlq_1ny58t8-20" value="" style="endArrow=classic;html=1;rounded=0;edgeStyle=orthogonalEdgeStyle;strokeColor=#B5739D;" edge="1" parent="1">
          <mxGeometry width="50" height="50" relative="1" as="geometry">
            <mxPoint x="1127" y="553" as="sourcePoint" />
            <mxPoint x="1180" y="704" as="targetPoint" />
            <Array as="points">
              <mxPoint x="1140" y="554" />
              <mxPoint x="1140" y="704" />
            </Array>
          </mxGeometry>
        </mxCell>
        <mxCell id="JsNBszSfYDlq_1ny58t8-21" value="" style="endArrow=classic;html=1;rounded=0;edgeStyle=orthogonalEdgeStyle;entryX=1;entryY=0.5;entryDx=0;entryDy=0;exitX=-0.045;exitY=0.716;exitDx=0;exitDy=0;exitPerimeter=0;strokeColor=#009999;" edge="1" parent="1" target="mkcLU9aRLQ0EbhDpCmFJ-12">
          <mxGeometry width="50" height="50" relative="1" as="geometry">
            <mxPoint x="1043.0375" y="496.7399999999998" as="sourcePoint" />
            <mxPoint x="316.75" y="484.50000000000045" as="targetPoint" />
            <Array as="points">
              <mxPoint x="970" y="497" />
              <mxPoint x="970" y="178" />
              <mxPoint x="403" y="178" />
              <mxPoint x="403" y="489" />
              <mxPoint x="314" y="489" />
            </Array>
          </mxGeometry>
        </mxCell>
        <mxCell id="JsNBszSfYDlq_1ny58t8-24" value="" style="endArrow=classic;html=1;rounded=0;edgeStyle=orthogonalEdgeStyle;strokeColor=#009999;entryX=0;entryY=0.5;entryDx=0;entryDy=0;" edge="1" parent="1" target="mkcLU9aRLQ0EbhDpCmFJ-85">
          <mxGeometry width="50" height="50" relative="1" as="geometry">
            <mxPoint x="1127" y="494" as="sourcePoint" />
            <mxPoint x="1180" y="645" as="targetPoint" />
            <Array as="points">
              <mxPoint x="1127" y="495" />
              <mxPoint x="1130" y="495" />
              <mxPoint x="1130" y="541" />
            </Array>
          </mxGeometry>
        </mxCell>
        <mxCell id="JsNBszSfYDlq_1ny58t8-25" value="" style="endArrow=classic;html=1;rounded=0;edgeStyle=orthogonalEdgeStyle;entryX=1;entryY=0.5;entryDx=0;entryDy=0;exitX=0.012;exitY=0.558;exitDx=0;exitDy=0;exitPerimeter=0;strokeColor=#FF0080;" edge="1" parent="1" source="mkcLU9aRLQ0EbhDpCmFJ-74">
          <mxGeometry width="50" height="50" relative="1" as="geometry">
            <mxPoint x="1044.0375" y="549.7399999999998" as="sourcePoint" />
            <mxPoint x="315" y="542" as="targetPoint" />
            <Array as="points">
              <mxPoint x="1045" y="460" />
              <mxPoint x="980" y="460" />
              <mxPoint x="980" y="231" />
              <mxPoint x="430" y="231" />
              <mxPoint x="430" y="542" />
            </Array>
          </mxGeometry>
        </mxCell>
        <mxCell id="JsNBszSfYDlq_1ny58t8-27" value="" style="endArrow=classic;html=1;rounded=0;edgeStyle=orthogonalEdgeStyle;entryX=0;entryY=0.5;entryDx=0;entryDy=0;exitX=0.982;exitY=0.314;exitDx=0;exitDy=0;exitPerimeter=0;strokeColor=#FF0080;" edge="1" parent="1" target="mkcLU9aRLQ0EbhDpCmFJ-86">
          <mxGeometry x="-0.0046" width="50" height="50" relative="1" as="geometry">
            <mxPoint x="1124.7649999999999" y="454.61" as="sourcePoint" />
            <mxPoint x="1183.69" y="525.3999999999995" as="targetPoint" />
            <Array as="points">
              <mxPoint x="1140" y="455" />
              <mxPoint x="1140" y="525" />
              <mxPoint x="1150" y="525" />
              <mxPoint x="1150" y="611" />
            </Array>
            <mxPoint as="offset" />
          </mxGeometry>
        </mxCell>
        <mxCell id="JsNBszSfYDlq_1ny58t8-29" value="" style="endArrow=classic;html=1;rounded=0;edgeStyle=orthogonalEdgeStyle;strokeColor=#3333FF;" edge="1" parent="1">
          <mxGeometry width="50" height="50" relative="1" as="geometry">
            <mxPoint x="940" y="520" as="sourcePoint" />
            <mxPoint x="570" y="600" as="targetPoint" />
            <Array as="points">
              <mxPoint x="940" y="600" />
              <mxPoint x="620" y="600" />
            </Array>
          </mxGeometry>
        </mxCell>
        <mxCell id="JsNBszSfYDlq_1ny58t8-30" value="" style="endArrow=classic;html=1;rounded=0;edgeStyle=orthogonalEdgeStyle;strokeColor=#3333FF;exitX=1.007;exitY=0.882;exitDx=0;exitDy=0;exitPerimeter=0;entryX=1;entryY=0.75;entryDx=0;entryDy=0;" edge="1" parent="1" source="mkcLU9aRLQ0EbhDpCmFJ-3" target="mkcLU9aRLQ0EbhDpCmFJ-121">
          <mxGeometry width="50" height="50" relative="1" as="geometry">
            <mxPoint x="1161" y="900" as="sourcePoint" />
            <mxPoint x="790" y="980" as="targetPoint" />
            <Array as="points">
              <mxPoint x="962" y="985" />
            </Array>
          </mxGeometry>
        </mxCell>
        <mxCell id="JsNBszSfYDlq_1ny58t8-32" value="" style="endArrow=classic;startArrow=classic;html=1;rounded=0;edgeStyle=orthogonalEdgeStyle;exitX=1;exitY=0.5;exitDx=0;exitDy=0;strokeColor=#FFB570;" edge="1" parent="1" source="mkcLU9aRLQ0EbhDpCmFJ-94" target="mkcLU9aRLQ0EbhDpCmFJ-35">
          <mxGeometry width="50" height="50" relative="1" as="geometry">
            <mxPoint x="1307.5" y="259" as="sourcePoint" />
            <mxPoint x="1357.5" y="209" as="targetPoint" />
          </mxGeometry>
        </mxCell>
        <mxCell id="JsNBszSfYDlq_1ny58t8-33" value="" style="endArrow=classic;startArrow=classic;html=1;rounded=0;edgeStyle=orthogonalEdgeStyle;exitX=1;exitY=0.5;exitDx=0;exitDy=0;strokeColor=#EA6B66;entryX=0.145;entryY=0;entryDx=0;entryDy=4.35;entryPerimeter=0;" edge="1" parent="1" target="mkcLU9aRLQ0EbhDpCmFJ-35">
          <mxGeometry width="50" height="50" relative="1" as="geometry">
            <mxPoint x="1315" y="360" as="sourcePoint" />
            <mxPoint x="1443" y="486" as="targetPoint" />
          </mxGeometry>
        </mxCell>
        <mxCell id="JsNBszSfYDlq_1ny58t8-34" value="" style="endArrow=classic;startArrow=classic;html=1;rounded=0;edgeStyle=orthogonalEdgeStyle;strokeColor=#97D077;entryX=0.119;entryY=0.929;entryDx=0;entryDy=0;entryPerimeter=0;" edge="1" parent="1">
          <mxGeometry width="50" height="50" relative="1" as="geometry">
            <mxPoint x="1311" y="473" as="sourcePoint" />
            <mxPoint x="1420.43125" y="445.45600000000013" as="targetPoint" />
            <Array as="points">
              <mxPoint x="1420" y="473" />
              <mxPoint x="1420" y="452" />
              <mxPoint x="1420" y="452" />
            </Array>
          </mxGeometry>
        </mxCell>
        <mxCell id="JsNBszSfYDlq_1ny58t8-35" value="" style="endArrow=classic;startArrow=classic;html=1;rounded=0;edgeStyle=orthogonalEdgeStyle;exitX=1;exitY=0.5;exitDx=0;exitDy=0;strokeColor=#009999;entryX=0;entryY=1;entryDx=0;entryDy=-15;entryPerimeter=0;" edge="1" parent="1" target="mkcLU9aRLQ0EbhDpCmFJ-35">
          <mxGeometry width="50" height="50" relative="1" as="geometry">
            <mxPoint x="1328.81" y="536" as="sourcePoint" />
            <mxPoint x="1436.5" y="520" as="targetPoint" />
            <Array as="points" />
          </mxGeometry>
        </mxCell>
        <mxCell id="JsNBszSfYDlq_1ny58t8-36" value="" style="endArrow=classic;startArrow=classic;html=1;rounded=0;edgeStyle=orthogonalEdgeStyle;exitX=1;exitY=0.5;exitDx=0;exitDy=0;strokeColor=#FF0080;entryX=0.855;entryY=1;entryDx=0;entryDy=-4.35;entryPerimeter=0;" edge="1" parent="1" target="mkcLU9aRLQ0EbhDpCmFJ-35">
          <mxGeometry width="50" height="50" relative="1" as="geometry">
            <mxPoint x="1315" y="593.35" as="sourcePoint" />
            <mxPoint x="1454" y="440" as="targetPoint" />
            <Array as="points">
              <mxPoint x="1470" y="593" />
            </Array>
          </mxGeometry>
        </mxCell>
        <mxCell id="JsNBszSfYDlq_1ny58t8-37" value="" style="endArrow=classic;startArrow=classic;html=1;rounded=0;edgeStyle=orthogonalEdgeStyle;strokeColor=#B5739D;entryX=0;entryY=0;entryDx=0;entryDy=15;entryPerimeter=0;exitX=1.009;exitY=0.648;exitDx=0;exitDy=0;exitPerimeter=0;" edge="1" parent="1" source="JsNBszSfYDlq_1ny58t8-19" target="mkcLU9aRLQ0EbhDpCmFJ-35">
          <mxGeometry width="50" height="50" relative="1" as="geometry">
            <mxPoint x="1330" y="712" as="sourcePoint" />
            <mxPoint x="1420" y="450" as="targetPoint" />
            <Array as="points">
              <mxPoint x="1350" y="712" />
              <mxPoint x="1350" y="401" />
            </Array>
          </mxGeometry>
        </mxCell>
        <mxCell id="JsNBszSfYDlq_1ny58t8-39" value="" style="endArrow=classic;html=1;rounded=0;edgeStyle=orthogonalEdgeStyle;entryX=1;entryY=0.5;entryDx=0;entryDy=0;exitX=-0.033;exitY=0.191;exitDx=0;exitDy=0;exitPerimeter=0;strokeColor=#000000;" edge="1" parent="1" source="mkcLU9aRLQ0EbhDpCmFJ-74">
          <mxGeometry width="50" height="50" relative="1" as="geometry">
            <mxPoint x="1039.9975" y="438.6699999999998" as="sourcePoint" />
            <mxPoint x="310.96" y="430.93" as="targetPoint" />
            <Array as="points">
              <mxPoint x="990" y="362" />
              <mxPoint x="990" y="190" />
              <mxPoint x="360" y="190" />
              <mxPoint x="360" y="431" />
            </Array>
          </mxGeometry>
        </mxCell>
        <mxCell id="JsNBszSfYDlq_1ny58t8-42" value="" style="endArrow=classic;html=1;rounded=0;edgeStyle=orthogonalEdgeStyle;entryX=0;entryY=0;entryDx=0;entryDy=22.5;strokeColor=#000000;entryPerimeter=0;" edge="1" parent="1" target="mkcLU9aRLQ0EbhDpCmFJ-35">
          <mxGeometry width="50" height="50" relative="1" as="geometry">
            <mxPoint x="1126" y="362" as="sourcePoint" />
            <mxPoint x="1186" y="382" as="targetPoint" />
            <Array as="points">
              <mxPoint x="1140" y="362" />
              <mxPoint x="1140" y="408" />
            </Array>
          </mxGeometry>
        </mxCell>
        <mxCell id="JsNBszSfYDlq_1ny58t8-44" value="" style="endArrow=classic;startArrow=classic;html=1;rounded=0;strokeColor=#FF33FF;exitX=1;exitY=0.5;exitDx=0;exitDy=0;edgeStyle=orthogonalEdgeStyle;entryX=1;entryY=0.5;entryDx=0;entryDy=0;" edge="1" parent="1" source="mkcLU9aRLQ0EbhDpCmFJ-122" target="mkcLU9aRLQ0EbhDpCmFJ-107">
          <mxGeometry width="50" height="50" relative="1" as="geometry">
            <mxPoint x="881.5" y="1050" as="sourcePoint" />
            <mxPoint x="931.5" y="1000" as="targetPoint" />
            <Array as="points">
              <mxPoint x="920" y="1046" />
              <mxPoint x="920" y="700" />
            </Array>
          </mxGeometry>
        </mxCell>
        <mxCell id="JsNBszSfYDlq_1ny58t8-45" value="" style="endArrow=classic;startArrow=classic;html=1;rounded=0;strokeColor=#FF33FF;exitX=1;exitY=0.5;exitDx=0;exitDy=0;edgeStyle=orthogonalEdgeStyle;entryX=1;entryY=0.5;entryDx=0;entryDy=0;" edge="1" parent="1" source="mkcLU9aRLQ0EbhDpCmFJ-123" target="mkcLU9aRLQ0EbhDpCmFJ-108">
          <mxGeometry width="50" height="50" relative="1" as="geometry">
            <mxPoint x="790" y="1114" as="sourcePoint" />
            <mxPoint x="808" y="770" as="targetPoint" />
            <Array as="points">
              <mxPoint x="920" y="1125" />
              <mxPoint x="920" y="780" />
            </Array>
          </mxGeometry>
        </mxCell>
        <mxCell id="mkcLU9aRLQ0EbhDpCmFJ-125" value="" style="shape=actor;whiteSpace=wrap;html=1;fontSize=20;" vertex="1" parent="1">
          <mxGeometry x="460" y="1025" width="40" height="60" as="geometry" />
        </mxCell>
        <mxCell id="mkcLU9aRLQ0EbhDpCmFJ-124" style="edgeStyle=orthogonalEdgeStyle;rounded=0;orthogonalLoop=1;jettySize=auto;html=1;exitX=0.9;exitY=0.5;exitDx=0;exitDy=0;exitPerimeter=0;entryX=0;entryY=0.5;entryDx=0;entryDy=0;fontSize=20;" edge="1" parent="1" source="mkcLU9aRLQ0EbhDpCmFJ-125" target="mkcLU9aRLQ0EbhDpCmFJ-120">
          <mxGeometry relative="1" as="geometry" />
        </mxCell>
        <mxCell id="mkcLU9aRLQ0EbhDpCmFJ-127" value="&lt;span style=&quot;font-size: 20px;&quot;&gt;Админь&lt;/span&gt;" style="text;whiteSpace=wrap;html=1;" vertex="1" parent="1">
          <mxGeometry x="440" y="1090" width="75" height="30" as="geometry" />
        </mxCell>
        <mxCell id="JsNBszSfYDlq_1ny58t8-46" value="" style="endArrow=none;html=1;rounded=0;edgeStyle=orthogonalEdgeStyle;entryX=0.011;entryY=0.956;entryDx=0;entryDy=0;entryPerimeter=0;strokeColor=#FF33FF;" edge="1" parent="1" target="mkcLU9aRLQ0EbhDpCmFJ-74">
          <mxGeometry width="50" height="50" relative="1" as="geometry">
            <mxPoint x="920" y="700" as="sourcePoint" />
            <mxPoint x="1040" y="560" as="targetPoint" />
            <Array as="points">
              <mxPoint x="920" y="620" />
              <mxPoint x="1000" y="620" />
              <mxPoint x="1000" y="564" />
            </Array>
          </mxGeometry>
        </mxCell>
        <mxCell id="JsNBszSfYDlq_1ny58t8-49" value="" style="endArrow=classic;html=1;rounded=0;edgeStyle=orthogonalEdgeStyle;entryX=0.278;entryY=1.005;entryDx=0;entryDy=0;strokeColor=#FF33FF;entryPerimeter=0;exitX=1.004;exitY=0.956;exitDx=0;exitDy=0;exitPerimeter=0;" edge="1" parent="1" source="mkcLU9aRLQ0EbhDpCmFJ-74" target="mkcLU9aRLQ0EbhDpCmFJ-35">
          <mxGeometry x="-0.0046" width="50" height="50" relative="1" as="geometry">
            <mxPoint x="1127" y="570" as="sourcePoint" />
            <mxPoint x="1187" y="615" as="targetPoint" />
            <Array as="points">
              <mxPoint x="1140" y="564" />
              <mxPoint x="1140" y="570" />
              <mxPoint x="1430" y="570" />
            </Array>
            <mxPoint as="offset" />
          </mxGeometry>
        </mxCell>
      </root>
    </mxGraphModel>
  </diagram>
  <diagram id="IUUaHUnBRmZ791x3E3A-" name="Page-2">
    <mxGraphModel dx="2850" dy="1604" grid="1" gridSize="10" guides="1" tooltips="1" connect="1" arrows="1" fold="1" page="1" pageScale="1" pageWidth="850" pageHeight="1100" math="0" shadow="0">
      <root>
        <mxCell id="0" />
        <mxCell id="1" parent="0" />
        <mxCell id="Gl_XE40IwFYZYpE4D8Ll-1" value="&#xa;  &#xa;&#xa;&#xa;&#xa;&#xa;  &#xa;&#xa;&#xa;&#xa;&#xa;  &#xa;&#xa;&#xa;&#xa;&#xa;  &#xa;&#xa;&#xa;&#xa;&#xa;  &#xa;&#xa;&#xa;&#xa;&#xa;  &#xa;&#xa;&#xa;&#xa;&#xa;  &#xa;    &#xa;      &#xa;      &#xa;    &#xa;  &#xa;&#xa;&#xa;&#xa;&#xa;  &#xa;    &#xa;      &#xa;      &#xa;    &#xa;  &#xa;&#xa;&#xa;&#xa;&#xa;  &#xa;    &#xa;      &#xa;      &#xa;    &#xa;  &#xa;&#xa;&#xa;&#xa;&#xa;  &#xa;    &#xa;      &#xa;      &#xa;    &#xa;  &#xa;&#xa;&#xa;&#xa;&#xa;  &#xa;    &#xa;      &#xa;      &#xa;    &#xa;  &#xa;&#xa;&#xa;&#xa;&#xa;  &#xa;    &#xa;      &#xa;      &#xa;    &#xa;  &#xa;&#xa;&#xa;&#xa;&#xa;  &#xa;    &#xa;      &#xa;      &#xa;    &#xa;  &#xa;&#xa;&#xa;&#xa;&#xa;  &#xa;    &#xa;      &#xa;      &#xa;    &#xa;  &#xa;&#xa;&#xa;&#xa;&#xa;  &#xa;    &#xa;      &#xa;    &#xa;  &#xa;&#xa;&#xa;&#xa;&#xa;  &#xa;    &#xa;      &#xa;    &#xa;  &#xa;&#xa;&#xa;&#xa;&#xa;  &#xa;    &#xa;      &#xa;    &#xa;  &#xa;&#xa;&#xa;&#xa;&#xa;  &#xa;    &#xa;      &#xa;    &#xa;  &#xa;&#xa;&#xa;&#xa;&#xa;  &#xa;&#xa;&#xa;&#xa;&#xa;  &#xa;&#xa;&#xa;&#xa;&#xa;  &#xa;&#xa;&#xa;&#xa;&#xa;  &#xa;&#xa;&#xa;&#xa;&#xa;  &#xa;" style="text;whiteSpace=wrap;html=1;" vertex="1" parent="1">
          <mxGeometry width="30" height="2380" as="geometry" />
        </mxCell>
        <mxCell id="Wribh3iiFGo_7HKxDmLH-1" value="&#xa;&lt;div version=&quot;&quot; x=&quot;&quot; data-mxgraph=&quot;{&quot; style=&quot;max-width:100%;border:1px solid transparent;&quot; class=&quot;mxgraph&quot;&gt;\n  \n    \n      \n        \n        \n        \n          \n        \n        \n          \n        \n        \n          \n        \n        \n          \n        \n        \n          \n        \n        \n          \n        \n        \n          \n            \n            \n            \n              \n              \n            \n          \n        \n        \n          \n            \n          \n        \n        \n          \n        \n        \n          \n        \n        \n          \n        \n        \n          \n        \n        \n          \n        \n        \n          \n        \n        \n          \n        \n        \n          \n        \n        \n          \n        \n        \n          \n            \n              \n            \n          \n        \n        \n          \n            \n              \n            \n          \n        \n        \n          \n        \n        \n          \n            \n              \n            \n          \n        \n        \n          \n        \n        \n          \n        \n        \n          \n        \n        \n          \n        \n        \n          \n        \n        \n          \n        \n        \n          \n        \n        \n          \n        \n        \n          \n        \n        \n          \n        \n        \n          \n        \n        \n          \n        \n        \n          \n        \n        \n          \n        \n        \n          \n        \n        \n          \n        \n        \n          \n        \n        \n          \n        \n        \n          \n        \n        \n          \n            \n            \n            \n              \n            \n          \n        \n        \n          \n        \n        \n          \n        \n        \n          \n        \n        \n          \n        \n        \n          \n        \n        \n          \n        \n        \n          \n        \n        \n          \n        \n        \n          \n        \n        \n          \n        \n        \n          \n        \n        \n          \n        \n        \n          \n        \n        \n          \n        \n        \n          \n        \n        \n          \n        \n\n        \n        \n          \n        \n\n        \n        \n          \n        \n\n        \n        \n          \n        \n\n        \n        \n          \n        \n\n        \n        \n          \n        \n\n        \n        \n          \n        \n\n        \n        \n          \n            \n              \n              \n            \n          \n        \n\n        \n        \n          \n            \n              \n              \n            \n          \n        \n\n        \n        \n          \n            \n              \n              \n            \n          \n        \n\n        \n        \n          \n            \n              \n              \n            \n          \n        \n\n        \n        \n          \n            \n              \n              \n            \n          \n        \n\n        \n        \n          \n            \n              \n              \n            \n          \n        \n\n        \n        \n          \n            \n              \n              \n            \n          \n        \n\n        \n        \n          \n            \n              \n              \n            \n          \n        \n\n        \n        \n          \n            \n              \n            \n          \n        \n\n        \n        \n          \n            \n              \n            \n          \n        \n\n        \n        \n          \n            \n              \n            \n          \n        \n\n        \n        \n          \n            \n              \n            \n          \n        \n\n        \n        \n          \n        \n\n        \n        \n          \n        \n\n        \n        \n          \n        \n\n        \n        \n          \n        \n\n        \n        \n          \n        \n\n        \n        \n          \n        \n\n        \n        \n          \n        \n\n        \n        \n          \n        \n      \n    \n  \n  \n    \n      \n        \n        \n        \n          \n        \n      \n    \n  \n\n&quot;}&quot;&amp;gt;&lt;/div&gt;&#xa;&#xa;&#xa;" style="text;whiteSpace=wrap;html=1;" vertex="1" parent="1">
          <mxGeometry width="560" height="240" as="geometry" />
        </mxCell>
      </root>
    </mxGraphModel>
  </diagram>
</mxfile>
